<svg width="559" height="96" viewBox="0 0 559 96" fill="none" xmlns="http://www.w3.org/2000/svg">
<path d="M13.8343 2.11348C16.7485 2.11348 19.2784 2.59384 21.4239 3.55455C23.6016 4.51526 25.2668 5.89229 26.4197 7.68562C27.5725 9.47895 28.1489 11.6085 28.1489 14.0744C28.1489 16.5082 27.5725 18.6378 26.4197 20.4631C25.2668 22.2564 23.6016 23.6335 21.4239 24.5942C19.2784 25.5549 16.7485 26.0352 13.8343 26.0352H6.24467V35.7384H3.73402e-05V2.11348H13.8343ZM13.5461 20.7513C16.2681 20.7513 18.3336 20.1749 19.7427 19.022C21.1517 17.8692 21.8563 16.22 21.8563 14.0744C21.8563 11.9288 21.1517 10.2795 19.7427 9.12669C18.3336 7.97383 16.2681 7.3974 13.5461 7.3974H6.24467V20.7513H13.5461ZM39.2902 13.8342C41.0195 11.1442 44.0618 9.79919 48.417 9.79919V15.5154C47.9046 15.4194 47.4403 15.3713 47.024 15.3713C44.6862 15.3713 42.8609 16.0598 41.5479 17.4369C40.2349 18.7819 39.5784 20.7353 39.5784 23.2972V35.7384H33.574V10.0874H39.2902V13.8342ZM65.4772 30.9829C68.2632 30.9829 70.5849 30.0542 72.4423 28.1968L75.6127 31.8956C74.4918 33.2726 73.0508 34.3134 71.2895 35.0179C69.5282 35.7224 67.5427 36.0747 65.333 36.0747C62.515 36.0747 60.0331 35.5143 57.8875 34.3935C55.7419 33.2726 54.0767 31.7195 52.8918 29.734C51.739 27.7165 51.1625 25.4428 51.1625 22.9129C51.1625 20.4151 51.7229 18.1734 52.8438 16.1879C53.9966 14.1704 55.5658 12.6013 57.5513 11.4804C59.5688 10.3596 61.8425 9.79919 64.3723 9.79919C66.7741 9.79919 68.9517 10.3276 70.9052 11.3844C72.8907 12.4091 74.4598 13.8982 75.6127 15.8517C76.7655 17.7731 77.342 20.0308 77.342 22.6247L57.6954 26.4676C58.3038 27.9407 59.2806 29.0615 60.6256 29.8301C61.9705 30.5986 63.5877 30.9829 65.4772 30.9829ZM64.3723 14.6028C62.1627 14.6028 60.3694 15.3233 58.9923 16.7644C57.6473 18.2054 56.9748 20.1429 56.9748 22.5767V22.6247L71.4816 19.8386C71.0653 18.2695 70.2167 17.0045 68.9357 16.0438C67.6868 15.0831 66.1657 14.6028 64.3723 14.6028ZM68.4554 6.5808L64.2282 3.02616L60.0011 6.5808H55.0534L61.4902 -8.68488e-05H66.9663L73.403 6.5808H68.4554ZM97.5214 34.3454C96.8169 34.9218 95.9523 35.3542 94.9275 35.6424C93.9348 35.9306 92.878 36.0747 91.7572 36.0747C88.9391 36.0747 86.7615 35.3382 85.2243 33.8651C83.6872 32.392 82.9186 30.2464 82.9186 27.4283V4.41919H88.9231V10.2795H95.7922V15.0831H88.9231V27.2842C88.9231 28.5331 89.2273 29.4938 89.8357 30.1663C90.4762 30.8068 91.3569 31.127 92.4777 31.127C93.8227 31.127 94.9435 30.7748 95.8402 30.0702L97.5214 34.3454ZM140.835 10.0874V35.7384H135.118V32.424C134.126 33.6409 132.893 34.5536 131.42 35.162C129.979 35.7705 128.377 36.0747 126.616 36.0747C124.118 36.0747 121.877 35.5303 119.891 34.4415C117.938 33.3527 116.4 31.8155 115.28 29.8301C114.191 27.8446 113.646 25.5389 113.646 22.9129C113.646 20.287 114.191 17.9973 115.28 16.0438C116.4 14.0584 117.938 12.5212 119.891 11.4324C121.877 10.3436 124.118 9.79919 126.616 9.79919C128.281 9.79919 129.802 10.0874 131.179 10.6638C132.588 11.2403 133.805 12.0889 134.83 13.2097V10.0874H140.835ZM127.289 30.9349C129.498 30.9349 131.324 30.1983 132.765 28.7252C134.206 27.2521 134.926 25.3147 134.926 22.9129C134.926 20.5111 134.206 18.5737 132.765 17.1006C131.324 15.6275 129.498 14.891 127.289 14.891C125.079 14.891 123.254 15.6275 121.812 17.1006C120.403 18.5737 119.699 20.5111 119.699 22.9129C119.699 25.3147 120.403 27.2521 121.812 28.7252C123.254 30.1983 125.079 30.9349 127.289 30.9349ZM118.738 -8.68488e-05H125.799L132.284 6.5808H127.096L118.738 -8.68488e-05ZM176.377 34.3454C175.672 34.9218 174.808 35.3542 173.783 35.6424C172.79 35.9306 171.733 36.0747 170.613 36.0747C167.794 36.0747 165.617 35.3382 164.08 33.8651C162.543 32.392 161.774 30.2464 161.774 27.4283V4.41919H167.778V10.2795H174.648V15.0831H167.778V27.2842C167.778 28.5331 168.083 29.4938 168.691 30.1663C169.332 30.8068 170.212 31.127 171.333 31.127C172.678 31.127 173.799 30.7748 174.696 30.0702L176.377 34.3454ZM187.056 13.8342C188.785 11.1442 191.828 9.79919 196.183 9.79919V15.5154C195.671 15.4194 195.206 15.3713 194.79 15.3713C192.452 15.3713 190.627 16.0598 189.314 17.4369C188.001 18.7819 187.344 20.7353 187.344 23.2972V35.7384H181.34V10.0874H187.056V13.8342ZM226.117 10.0874V35.7384H220.4V32.424C219.408 33.6409 218.175 34.5536 216.702 35.162C215.261 35.7705 213.659 36.0747 211.898 36.0747C209.4 36.0747 207.159 35.5303 205.173 34.4415C203.22 33.3527 201.683 31.8155 200.562 29.8301C199.473 27.8446 198.928 25.5389 198.928 22.9129C198.928 20.287 199.473 17.9973 200.562 16.0438C201.683 14.0584 203.22 12.5212 205.173 11.4324C207.159 10.3436 209.4 9.79919 211.898 9.79919C213.563 9.79919 215.084 10.0874 216.462 10.6638C217.871 11.2403 219.087 12.0889 220.112 13.2097V10.0874H226.117ZM212.571 30.9349C214.78 30.9349 216.606 30.1983 218.047 28.7252C219.488 27.2521 220.208 25.3147 220.208 22.9129C220.208 20.5111 219.488 18.5737 218.047 17.1006C216.606 15.6275 214.78 14.891 212.571 14.891C210.361 14.891 208.536 15.6275 207.095 17.1006C205.686 18.5737 204.981 20.5111 204.981 22.9129C204.981 25.3147 205.686 27.2521 207.095 28.7252C208.536 30.1983 210.361 30.9349 212.571 30.9349ZM248.528 9.79919C251.762 9.79919 254.356 10.7439 256.309 12.6333C258.263 14.5227 259.24 17.3248 259.24 21.0395V35.7384H253.235V21.8081C253.235 19.5664 252.707 17.8852 251.65 16.7644C250.593 15.6115 249.088 15.0351 247.135 15.0351C244.925 15.0351 243.18 15.7076 241.899 17.0526C240.618 18.3655 239.977 20.271 239.977 22.7688V35.7384H233.973V10.0874H239.689V13.4019C240.682 12.217 241.931 11.3203 243.436 10.7119C244.941 10.1034 246.638 9.79919 248.528 9.79919ZM274.782 36.0747C272.701 36.0747 270.667 35.8025 268.682 35.2581C266.696 34.7137 265.111 34.0252 263.926 33.1926L266.232 28.6292C267.385 29.3977 268.762 30.0222 270.363 30.5026C271.996 30.9509 273.598 31.1751 275.167 31.1751C278.753 31.1751 280.547 30.2304 280.547 28.341C280.547 27.4443 280.082 26.8198 279.154 26.4676C278.257 26.1153 276.8 25.7791 274.782 25.4588C272.669 25.1386 270.94 24.7703 269.595 24.354C268.282 23.9377 267.129 23.2172 266.136 22.1924C265.175 21.1356 264.695 19.6785 264.695 17.8211C264.695 15.3873 265.704 13.4499 267.721 12.0088C269.771 10.5357 272.525 9.79919 275.983 9.79919C277.745 9.79919 279.506 10.0073 281.267 10.4237C283.029 10.8079 284.47 11.3363 285.59 12.0088L283.285 16.5722C281.107 15.2913 278.657 14.6508 275.935 14.6508C274.174 14.6508 272.829 14.923 271.9 15.4674C271.004 15.9798 270.555 16.6683 270.555 17.5329C270.555 18.4936 271.036 19.1822 271.996 19.5985C272.989 19.9828 274.51 20.351 276.56 20.7033C278.609 21.0235 280.291 21.3918 281.603 21.8081C282.916 22.2244 284.037 22.9289 284.966 23.9217C285.927 24.9144 286.407 26.3235 286.407 28.1488C286.407 30.5506 285.366 32.472 283.285 33.9131C281.203 35.3542 278.369 36.0747 274.782 36.0747ZM303.347 36.0747C300.689 36.0747 298.303 35.5143 296.189 34.3935C294.076 33.2726 292.427 31.7195 291.242 29.734C290.057 27.7165 289.464 25.4428 289.464 22.9129C289.464 20.383 290.057 18.1254 291.242 16.1399C292.427 14.1544 294.06 12.6013 296.141 11.4804C298.255 10.3596 300.657 9.79919 303.347 9.79919C305.877 9.79919 308.086 10.3116 309.976 11.3363C311.897 12.3611 313.338 13.8342 314.299 15.7556L309.687 18.4456C308.951 17.2607 308.022 16.3801 306.901 15.8036C305.813 15.1952 304.612 14.891 303.299 14.891C301.057 14.891 299.2 15.6275 297.727 17.1006C296.253 18.5417 295.517 20.4791 295.517 22.9129C295.517 25.3467 296.237 27.3002 297.679 28.7733C299.152 30.2143 301.025 30.9349 303.299 30.9349C304.612 30.9349 305.813 30.6467 306.901 30.0702C308.022 29.4618 308.951 28.5651 309.687 27.3802L314.299 30.0702C313.306 31.9917 311.849 33.4808 309.928 34.5376C308.038 35.5623 305.845 36.0747 303.347 36.0747ZM344.189 10.0874V35.7384H338.472V32.424C337.48 33.6409 336.247 34.5536 334.774 35.162C333.333 35.7705 331.731 36.0747 329.97 36.0747C327.472 36.0747 325.231 35.5303 323.245 34.4415C321.292 33.3527 319.755 31.8155 318.634 29.8301C317.545 27.8446 317.001 25.5389 317.001 22.9129C317.001 20.287 317.545 17.9973 318.634 16.0438C319.755 14.0584 321.292 12.5212 323.245 11.4324C325.231 10.3436 327.472 9.79919 329.97 9.79919C331.635 9.79919 333.157 10.0874 334.534 10.6638C335.943 11.2403 337.159 12.0889 338.184 13.2097V10.0874H344.189ZM330.643 30.9349C332.852 30.9349 334.678 30.1983 336.119 28.7252C337.56 27.2521 338.28 25.3147 338.28 22.9129C338.28 20.5111 337.56 18.5737 336.119 17.1006C334.678 15.6275 332.852 14.891 330.643 14.891C328.433 14.891 326.608 15.6275 325.167 17.1006C323.758 18.5737 323.053 20.5111 323.053 22.9129C323.053 25.3147 323.758 27.2521 325.167 28.7252C326.608 30.1983 328.433 30.9349 330.643 30.9349ZM366.6 9.79919C369.834 9.79919 372.428 10.7439 374.381 12.6333C376.335 14.5227 377.312 17.3248 377.312 21.0395V35.7384H371.307V21.8081C371.307 19.5664 370.779 17.8852 369.722 16.7644C368.665 15.6115 367.16 15.0351 365.207 15.0351C362.997 15.0351 361.252 15.7076 359.971 17.0526C358.69 18.3655 358.049 20.271 358.049 22.7688V35.7384H352.045V10.0874H357.761V13.4019C358.754 12.217 360.003 11.3203 361.508 10.7119C363.013 10.1034 364.71 9.79919 366.6 9.79919ZM410.286 0.0959832V35.7384H404.522V32.424C403.529 33.6409 402.296 34.5536 400.823 35.162C399.382 35.7705 397.781 36.0747 396.019 36.0747C393.553 36.0747 391.328 35.5303 389.342 34.4415C387.389 33.3527 385.852 31.8155 384.731 29.8301C383.61 27.8126 383.05 25.5069 383.05 22.9129C383.05 20.319 383.61 18.0293 384.731 16.0438C385.852 14.0584 387.389 12.5212 389.342 11.4324C391.328 10.3436 393.553 9.79919 396.019 9.79919C397.716 9.79919 399.27 10.0874 400.679 10.6638C402.088 11.2403 403.289 12.1049 404.281 13.2578V0.0959832H410.286ZM396.74 30.9349C398.181 30.9349 399.478 30.6146 400.631 29.9742C401.783 29.3017 402.696 28.357 403.369 27.1401C404.041 25.9232 404.377 24.5141 404.377 22.9129C404.377 21.3117 404.041 19.9027 403.369 18.6858C402.696 17.4689 401.783 16.5402 400.631 15.8997C399.478 15.2272 398.181 14.891 396.74 14.891C395.299 14.891 394.002 15.2272 392.849 15.8997C391.696 16.5402 390.783 17.4689 390.111 18.6858C389.438 19.9027 389.102 21.3117 389.102 22.9129C389.102 24.5141 389.438 25.9232 390.111 27.1401C390.783 28.357 391.696 29.3017 392.849 29.9742C394.002 30.6146 395.299 30.9349 396.74 30.9349ZM430.342 30.9829C433.128 30.9829 435.45 30.0542 437.307 28.1968L440.477 31.8956C439.356 33.2726 437.915 34.3134 436.154 35.0179C434.393 35.7224 432.407 36.0747 430.198 36.0747C427.38 36.0747 424.898 35.5143 422.752 34.3935C420.607 33.2726 418.941 31.7195 417.756 29.734C416.604 27.7165 416.027 25.4428 416.027 22.9129C416.027 20.4151 416.588 18.1734 417.708 16.1879C418.861 14.1704 420.43 12.6013 422.416 11.4804C424.433 10.3596 426.707 9.79919 429.237 9.79919C431.639 9.79919 433.816 10.3276 435.77 11.3844C437.755 12.4091 439.324 13.8982 440.477 15.8517C441.63 17.7731 442.207 20.0308 442.207 22.6247L422.56 26.4676C423.168 27.9407 424.145 29.0615 425.49 29.8301C426.835 30.5986 428.452 30.9829 430.342 30.9829ZM429.237 14.6028C427.027 14.6028 425.234 15.3233 423.857 16.7644C422.512 18.2054 421.839 20.1429 421.839 22.5767V22.6247L436.346 19.8386C435.93 18.2695 435.081 17.0045 433.8 16.0438C432.551 15.0831 431.03 14.6028 429.237 14.6028ZM453.692 13.8342C455.421 11.1442 458.463 9.79919 462.818 9.79919V15.5154C462.306 15.4194 461.842 15.3713 461.425 15.3713C459.088 15.3713 457.262 16.0598 455.949 17.4369C454.636 18.7819 453.98 20.7353 453.98 23.2972V35.7384H447.975V10.0874H453.692V13.8342ZM505.44 10.0874L494.44 35.7384H488.243L477.243 10.0874H483.488L491.462 29.1095L499.676 10.0874H505.44ZM520.018 36.0747C517.424 36.0747 515.086 35.5143 513.004 34.3935C510.923 33.2726 509.29 31.7195 508.105 29.734C506.952 27.7165 506.376 25.4428 506.376 22.9129C506.376 20.383 506.952 18.1254 508.105 16.1399C509.29 14.1544 510.923 12.6013 513.004 11.4804C515.086 10.3596 517.424 9.79919 520.018 9.79919C522.644 9.79919 524.997 10.3596 527.079 11.4804C529.16 12.6013 530.778 14.1544 531.93 16.1399C533.115 18.1254 533.708 20.383 533.708 22.9129C533.708 25.4428 533.115 27.7165 531.93 29.734C530.778 31.7195 529.16 33.2726 527.079 34.3935C524.997 35.5143 522.644 36.0747 520.018 36.0747ZM520.018 30.9349C522.227 30.9349 524.053 30.1983 525.494 28.7252C526.935 27.2521 527.655 25.3147 527.655 22.9129C527.655 20.5111 526.935 18.5737 525.494 17.1006C524.053 15.6275 522.227 14.891 520.018 14.891C517.808 14.891 515.983 15.6275 514.542 17.1006C513.133 18.5737 512.428 20.5111 512.428 22.9129C512.428 25.3147 513.133 27.2521 514.542 28.7252C515.983 30.1983 517.808 30.9349 520.018 30.9349ZM547.375 36.0747C545.294 36.0747 543.26 35.8025 541.275 35.2581C539.289 34.7137 537.704 34.0252 536.519 33.1926L538.825 28.6292C539.978 29.3977 541.355 30.0222 542.956 30.5026C544.589 30.9509 546.191 31.1751 547.76 31.1751C551.346 31.1751 553.14 30.2304 553.14 28.341C553.14 27.4443 552.675 26.8198 551.747 26.4676C550.85 26.1153 549.393 25.7791 547.375 25.4588C545.262 25.1386 543.533 24.7703 542.188 24.354C540.875 23.9377 539.722 23.2172 538.729 22.1924C537.768 21.1356 537.288 19.6785 537.288 17.8211C537.288 15.3873 538.297 13.4499 540.314 12.0088C542.364 10.5357 545.118 9.79919 548.576 9.79919C550.338 9.79919 552.099 10.0073 553.86 10.4237C555.622 10.8079 557.063 11.3363 558.183 12.0088L555.878 16.5722C553.7 15.2913 551.25 14.6508 548.528 14.6508C546.767 14.6508 545.422 14.923 544.493 15.4674C543.597 15.9798 543.148 16.6683 543.148 17.5329C543.148 18.4936 543.629 19.1822 544.589 19.5985C545.582 19.9828 547.103 20.351 549.153 20.7033C551.202 21.0235 552.884 21.3918 554.197 21.8081C555.509 22.2244 556.63 22.9289 557.559 23.9217C558.52 24.9144 559 26.3235 559 28.1488C559 30.5506 557.959 32.472 555.878 33.9131C553.796 35.3542 550.962 36.0747 547.375 36.0747ZM469.758 83.638C469.758 81.9087 470.143 80.4837 470.911 79.3628C471.712 78.21 472.865 76.9611 474.37 75.6161C475.523 74.5913 476.371 73.7106 476.916 72.9741C477.492 72.2055 477.78 71.3409 477.78 70.3802C477.78 69.0352 477.236 67.9464 476.147 67.1137C475.058 66.2811 473.601 65.8648 471.776 65.8648C468.317 65.8648 465.707 67.0977 463.946 69.5636L459.287 66.5373C460.664 64.6479 462.441 63.2068 464.619 62.2141C466.796 61.1893 469.358 60.677 472.304 60.677C475.891 60.677 478.741 61.4615 480.855 63.0307C483 64.5679 484.073 66.6974 484.073 69.4195C484.073 70.7324 483.849 71.8853 483.401 72.878C482.984 73.8708 482.472 74.7194 481.863 75.4239C481.255 76.0964 480.454 76.881 479.462 77.7777C478.245 78.8665 477.332 79.8272 476.724 80.6598C476.147 81.4924 475.859 82.4852 475.859 83.638H469.758ZM472.833 95.1185C471.712 95.1185 470.783 94.7663 470.047 94.0618C469.342 93.3252 468.99 92.4285 468.99 91.3718C468.99 90.315 469.342 89.4343 470.047 88.7298C470.783 88.0253 471.712 87.673 472.833 87.673C473.922 87.673 474.818 88.0253 475.523 88.7298C476.259 89.4343 476.628 90.315 476.628 91.3718C476.628 92.4285 476.259 93.3252 475.523 94.0618C474.818 94.7663 473.922 95.1185 472.833 95.1185Z" fill="black"/>
<path d="M3.73402e-05 61.1573H6.24467V89.4984H23.8257V94.7823H3.73402e-05V61.1573ZM28.1793 69.1312H34.1838V94.7823H28.1793V69.1312ZM31.2056 64.9041C30.1168 64.9041 29.2041 64.5679 28.4675 63.8954C27.731 63.1908 27.3627 62.3262 27.3627 61.3014C27.3627 60.2767 27.731 59.428 28.4675 58.7555C29.2041 58.051 30.1168 57.6988 31.2056 57.6988C32.2944 57.6988 33.2071 58.035 33.9436 58.7075C34.6802 59.348 35.0484 60.1646 35.0484 61.1573C35.0484 62.2141 34.6802 63.1108 33.9436 63.8473C33.2391 64.5518 32.3264 64.9041 31.2056 64.9041ZM74.4407 68.843C77.6751 68.843 80.237 69.7877 82.1264 71.6771C84.0158 73.5345 84.9605 76.3366 84.9605 80.0834V94.7823H78.956V80.8519C78.956 78.6103 78.4597 76.929 77.4669 75.8082C76.4742 74.6553 75.0491 74.0789 73.1918 74.0789C71.1743 74.0789 69.5571 74.7514 68.3402 76.0964C67.1232 77.4094 66.5148 79.2988 66.5148 81.7646V94.7823H60.5103V80.8519C60.5103 78.6103 60.014 76.929 59.0212 75.8082C58.0285 74.6553 56.6034 74.0789 54.7461 74.0789C52.6965 74.0789 51.0633 74.7354 49.8464 76.0484C48.6615 77.3614 48.0691 79.2668 48.0691 81.7646V94.7823H42.0646V69.1312H47.7809V72.3977C48.7416 71.2448 49.9425 70.3642 51.3836 69.7557C52.8246 69.1473 54.4258 68.843 56.1871 68.843C58.1086 68.843 59.8058 69.2113 61.2789 69.9478C62.784 70.6524 63.9689 71.7092 64.8336 73.1182C65.8903 71.7732 67.2513 70.7324 68.9166 69.9959C70.5818 69.2273 72.4232 68.843 74.4407 68.843ZM92.6334 69.1312H98.6379V94.7823H92.6334V69.1312ZM95.6597 64.9041C94.5709 64.9041 93.6582 64.5679 92.9217 63.8954C92.1851 63.1908 91.8168 62.3262 91.8168 61.3014C91.8168 60.2767 92.1851 59.428 92.9217 58.7555C93.6582 58.051 94.5709 57.6988 95.6597 57.6988C96.7485 57.6988 97.6612 58.035 98.3977 58.7075C99.1343 59.348 99.5025 60.1646 99.5025 61.1573C99.5025 62.2141 99.1343 63.1108 98.3977 63.8473C97.6932 64.5518 96.7805 64.9041 95.6597 64.9041ZM120.929 93.3893C120.225 93.9657 119.36 94.398 118.336 94.6862C117.343 94.9744 116.286 95.1185 115.165 95.1185C112.347 95.1185 110.169 94.382 108.632 92.9089C107.095 91.4358 106.327 89.2902 106.327 86.4721V63.463H112.331V69.3234H119.2V74.127H112.331V86.328C112.331 87.5769 112.635 88.5376 113.244 89.2101C113.884 89.8506 114.765 90.1709 115.886 90.1709C117.231 90.1709 118.352 89.8186 119.248 89.1141L120.929 93.3893ZM137.249 90.0268C140.035 90.0268 142.357 89.0981 144.214 87.2407L147.385 90.9394C146.264 92.3165 144.823 93.3572 143.062 94.0618C141.3 94.7663 139.315 95.1185 137.105 95.1185C134.287 95.1185 131.805 94.5581 129.66 93.4373C127.514 92.3165 125.849 90.7633 124.664 88.7778C123.511 86.7603 122.935 84.4866 122.935 81.9568C122.935 79.4589 123.495 77.2172 124.616 75.2318C125.769 73.2143 127.338 71.6451 129.323 70.5243C131.341 69.4034 133.614 68.843 136.144 68.843C138.546 68.843 140.724 69.3714 142.677 70.4282C144.663 71.453 146.232 72.9421 147.385 74.8955C148.538 76.8169 149.114 79.0746 149.114 81.6686L129.467 85.5114C130.076 86.9845 131.053 88.1053 132.398 88.8739C133.743 89.6425 135.36 90.0268 137.249 90.0268ZM136.144 73.6466C133.935 73.6466 132.141 74.3671 130.764 75.8082C129.419 77.2493 128.747 79.1867 128.747 81.6205V81.6686L143.254 78.8825C142.837 77.3133 141.989 76.0484 140.708 75.0877C139.459 74.1269 137.938 73.6466 136.144 73.6466ZM162.809 95.1185C160.727 95.1185 158.694 94.8463 156.708 94.3019C154.723 93.7575 153.137 93.069 151.953 92.2364L154.258 87.673C155.411 88.4416 156.788 89.066 158.389 89.5464C160.023 89.9947 161.624 90.2189 163.193 90.2189C166.78 90.2189 168.573 89.2742 168.573 87.3848C168.573 86.4881 168.109 85.8637 167.18 85.5114C166.283 85.1591 164.826 84.8229 162.809 84.5027C160.695 84.1824 158.966 83.8141 157.621 83.3978C156.308 82.9815 155.155 82.261 154.162 81.2362C153.202 80.1794 152.721 78.7224 152.721 76.865C152.721 74.4312 153.73 72.4937 155.747 71.0527C157.797 69.5796 160.551 68.843 164.01 68.843C165.771 68.843 167.532 69.0512 169.293 69.4675C171.055 69.8518 172.496 70.3802 173.617 71.0527L171.311 75.6161C169.133 74.3351 166.684 73.6946 163.962 73.6946C162.2 73.6946 160.855 73.9668 159.927 74.5112C159.03 75.0236 158.582 75.7121 158.582 76.5768C158.582 77.5375 159.062 78.226 160.023 78.6423C161.015 79.0266 162.536 79.3949 164.586 79.7471C166.636 80.0674 168.317 80.4356 169.63 80.8519C170.943 81.2683 172.064 81.9728 172.992 82.9655C173.953 83.9583 174.433 85.3673 174.433 87.1927C174.433 89.5944 173.393 91.5159 171.311 92.9569C169.229 94.398 166.395 95.1185 162.809 95.1185ZM223.334 61.1573V94.7823H217.09V80.3716H199.701V94.7823H193.456V61.1573H199.701V75.0396H217.09V61.1573H223.334ZM256.602 69.1312V94.7823H250.886V91.5159C249.925 92.6687 248.725 93.5654 247.284 94.2059C245.842 94.8143 244.289 95.1185 242.624 95.1185C239.198 95.1185 236.491 94.1738 234.506 92.2844C232.553 90.363 231.576 87.5289 231.576 83.7821V69.1312H237.58V82.9655C237.58 85.2712 238.093 87.0005 239.117 88.1534C240.174 89.2742 241.663 89.8346 243.585 89.8346C245.73 89.8346 247.428 89.1781 248.677 87.8652C249.957 86.5202 250.598 84.5987 250.598 82.1009V69.1312H256.602ZM296.84 68.843C300.075 68.843 302.636 69.7877 304.526 71.6771C306.415 73.5345 307.36 76.3366 307.36 80.0834V94.7823H301.356V80.8519C301.356 78.6103 300.859 76.929 299.866 75.8082C298.874 74.6553 297.449 74.0789 295.591 74.0789C293.574 74.0789 291.957 74.7514 290.74 76.0964C289.523 77.4094 288.914 79.2988 288.914 81.7646V94.7823H282.91V80.8519C282.91 78.6103 282.413 76.929 281.421 75.8082C280.428 74.6553 279.003 74.0789 277.146 74.0789C275.096 74.0789 273.463 74.7354 272.246 76.0484C271.061 77.3614 270.469 79.2668 270.469 81.7646V94.7823H264.464V69.1312H270.18V72.3977C271.141 71.2448 272.342 70.3642 273.783 69.7557C275.224 69.1473 276.825 68.843 278.587 68.843C280.508 68.843 282.205 69.2113 283.678 69.9478C285.184 70.6524 286.368 71.7092 287.233 73.1182C288.29 71.7732 289.651 70.7324 291.316 69.9959C292.981 69.2273 294.823 68.843 296.84 68.843ZM340.342 69.1312V94.7823H334.626V91.4678C333.633 92.6847 332.4 93.5974 330.927 94.2059C329.486 94.8143 327.885 95.1185 326.124 95.1185C323.626 95.1185 321.384 94.5741 319.399 93.4853C317.445 92.3965 315.908 90.8594 314.787 88.8739C313.698 86.8884 313.154 84.5827 313.154 81.9568C313.154 79.3308 313.698 77.0411 314.787 75.0877C315.908 73.1022 317.445 71.565 319.399 70.4762C321.384 69.3874 323.626 68.843 326.124 68.843C327.789 68.843 329.31 69.1312 330.687 69.7077C332.096 70.2841 333.313 71.1327 334.338 72.2536V69.1312H340.342ZM326.796 89.9787C329.006 89.9787 330.831 89.2422 332.272 87.7691C333.713 86.296 334.434 84.3585 334.434 81.9568C334.434 79.555 333.713 77.6175 332.272 76.1444C330.831 74.6714 329.006 73.9348 326.796 73.9348C324.586 73.9348 322.761 74.6714 321.32 76.1444C319.911 77.6175 319.206 79.555 319.206 81.9568C319.206 84.3585 319.911 86.296 321.32 87.7691C322.761 89.2422 324.586 89.9787 326.796 89.9787ZM348.198 69.1312H354.203V94.7823H348.198V69.1312ZM351.224 64.9041C350.136 64.9041 349.223 64.5679 348.486 63.8954C347.75 63.1908 347.382 62.3262 347.382 61.3014C347.382 60.2767 347.75 59.428 348.486 58.7555C349.223 58.051 350.136 57.6988 351.224 57.6988C352.313 57.6988 353.226 58.035 353.962 58.7075C354.699 59.348 355.067 60.1646 355.067 61.1573C355.067 62.2141 354.699 63.1108 353.962 63.8473C353.258 64.5518 352.345 64.9041 351.224 64.9041ZM376.638 68.843C379.873 68.843 382.467 69.7877 384.42 71.6771C386.374 73.5665 387.35 76.3686 387.35 80.0834V94.7823H381.346V80.8519C381.346 78.6103 380.817 76.929 379.761 75.8082C378.704 74.6553 377.199 74.0789 375.245 74.0789C373.036 74.0789 371.29 74.7514 370.009 76.0964C368.728 77.4094 368.088 79.3148 368.088 81.8127V94.7823H362.083V69.1312H367.8V72.4457C368.792 71.2608 370.041 70.3642 371.547 69.7557C373.052 69.1473 374.749 68.843 376.638 68.843ZM407.403 90.0268C410.189 90.0268 412.511 89.0981 414.368 87.2407L417.538 90.9394C416.418 92.3165 414.977 93.3572 413.215 94.0618C411.454 94.7663 409.468 95.1185 407.259 95.1185C404.441 95.1185 401.959 94.5581 399.813 93.4373C397.668 92.3165 396.002 90.7633 394.818 88.7778C393.665 86.7603 393.088 84.4866 393.088 81.9568C393.088 79.4589 393.649 77.2172 394.77 75.2318C395.922 73.2143 397.492 71.6451 399.477 70.5243C401.495 69.4034 403.768 68.843 406.298 68.843C408.7 68.843 410.877 69.3714 412.831 70.4282C414.816 71.453 416.386 72.9421 417.538 74.8955C418.691 76.8169 419.268 79.0746 419.268 81.6686L399.621 85.5114C400.23 86.9845 401.206 88.1053 402.551 88.8739C403.896 89.6425 405.513 90.0268 407.403 90.0268ZM406.298 73.6466C404.088 73.6466 402.295 74.3671 400.918 75.8082C399.573 77.2493 398.901 79.1867 398.901 81.6205V81.6686L413.407 78.8825C412.991 77.3133 412.142 76.0484 410.861 75.0877C409.613 74.1269 408.091 73.6466 406.298 73.6466ZM432.962 95.1185C430.881 95.1185 428.847 94.8463 426.862 94.3019C424.876 93.7575 423.291 93.069 422.106 92.2364L424.412 87.673C425.565 88.4416 426.942 89.066 428.543 89.5464C430.176 89.9947 431.777 90.2189 433.347 90.2189C436.933 90.2189 438.727 89.2742 438.727 87.3848C438.727 86.4881 438.262 85.8637 437.334 85.5114C436.437 85.1591 434.98 84.8229 432.962 84.5027C430.849 84.1824 429.12 83.8141 427.775 83.3978C426.462 82.9815 425.309 82.261 424.316 81.2362C423.355 80.1794 422.875 78.7224 422.875 76.865C422.875 74.4312 423.884 72.4937 425.901 71.0527C427.951 69.5796 430.705 68.843 434.163 68.843C435.925 68.843 437.686 69.0512 439.447 69.4675C441.208 69.8518 442.65 70.3802 443.77 71.0527L441.465 75.6161C439.287 74.3351 436.837 73.6946 434.115 73.6946C432.354 73.6946 431.009 73.9668 430.08 74.5112C429.184 75.0236 428.735 75.7121 428.735 76.5768C428.735 77.5375 429.216 78.226 430.176 78.6423C431.169 79.0266 432.69 79.3949 434.74 79.7471C436.789 80.0674 438.47 80.4356 439.783 80.8519C441.096 81.2683 442.217 81.9728 443.146 82.9655C444.107 83.9583 444.587 85.3673 444.587 87.1927C444.587 89.5944 443.546 91.5159 441.465 92.9569C439.383 94.398 436.549 95.1185 432.962 95.1185Z" fill="url(#paint0_linear_4_58)"/>
<path d="M3.73402e-05 61.1573H6.24467V89.4984H23.8257V94.7823H3.73402e-05V61.1573ZM28.1793 69.1312H34.1838V94.7823H28.1793V69.1312ZM31.2056 64.9041C30.1168 64.9041 29.2041 64.5679 28.4675 63.8954C27.731 63.1908 27.3627 62.3262 27.3627 61.3014C27.3627 60.2767 27.731 59.428 28.4675 58.7555C29.2041 58.051 30.1168 57.6988 31.2056 57.6988C32.2944 57.6988 33.2071 58.035 33.9436 58.7075C34.6802 59.348 35.0484 60.1646 35.0484 61.1573C35.0484 62.2141 34.6802 63.1108 33.9436 63.8473C33.2391 64.5518 32.3264 64.9041 31.2056 64.9041ZM74.4407 68.843C77.6751 68.843 80.237 69.7877 82.1264 71.6771C84.0158 73.5345 84.9605 76.3366 84.9605 80.0834V94.7823H78.956V80.8519C78.956 78.6103 78.4597 76.929 77.4669 75.8082C76.4742 74.6553 75.0491 74.0789 73.1918 74.0789C71.1743 74.0789 69.5571 74.7514 68.3402 76.0964C67.1232 77.4094 66.5148 79.2988 66.5148 81.7646V94.7823H60.5103V80.8519C60.5103 78.6103 60.014 76.929 59.0212 75.8082C58.0285 74.6553 56.6034 74.0789 54.7461 74.0789C52.6965 74.0789 51.0633 74.7354 49.8464 76.0484C48.6615 77.3614 48.0691 79.2668 48.0691 81.7646V94.7823H42.0646V69.1312H47.7809V72.3977C48.7416 71.2448 49.9425 70.3642 51.3836 69.7557C52.8246 69.1473 54.4258 68.843 56.1871 68.843C58.1086 68.843 59.8058 69.2113 61.2789 69.9478C62.784 70.6524 63.9689 71.7092 64.8336 73.1182C65.8903 71.7732 67.2513 70.7324 68.9166 69.9959C70.5818 69.2273 72.4232 68.843 74.4407 68.843ZM92.6334 69.1312H98.6379V94.7823H92.6334V69.1312ZM95.6597 64.9041C94.5709 64.9041 93.6582 64.5679 92.9217 63.8954C92.1851 63.1908 91.8168 62.3262 91.8168 61.3014C91.8168 60.2767 92.1851 59.428 92.9217 58.7555C93.6582 58.051 94.5709 57.6988 95.6597 57.6988C96.7485 57.6988 97.6612 58.035 98.3977 58.7075C99.1343 59.348 99.5025 60.1646 99.5025 61.1573C99.5025 62.2141 99.1343 63.1108 98.3977 63.8473C97.6932 64.5518 96.7805 64.9041 95.6597 64.9041ZM120.929 93.3893C120.225 93.9657 119.36 94.398 118.336 94.6862C117.343 94.9744 116.286 95.1185 115.165 95.1185C112.347 95.1185 110.169 94.382 108.632 92.9089C107.095 91.4358 106.327 89.2902 106.327 86.4721V63.463H112.331V69.3234H119.2V74.127H112.331V86.328C112.331 87.5769 112.635 88.5376 113.244 89.2101C113.884 89.8506 114.765 90.1709 115.886 90.1709C117.231 90.1709 118.352 89.8186 119.248 89.1141L120.929 93.3893ZM137.249 90.0268C140.035 90.0268 142.357 89.0981 144.214 87.2407L147.385 90.9394C146.264 92.3165 144.823 93.3572 143.062 94.0618C141.3 94.7663 139.315 95.1185 137.105 95.1185C134.287 95.1185 131.805 94.5581 129.66 93.4373C127.514 92.3165 125.849 90.7633 124.664 88.7778C123.511 86.7603 122.935 84.4866 122.935 81.9568C122.935 79.4589 123.495 77.2172 124.616 75.2318C125.769 73.2143 127.338 71.6451 129.323 70.5243C131.341 69.4034 133.614 68.843 136.144 68.843C138.546 68.843 140.724 69.3714 142.677 70.4282C144.663 71.453 146.232 72.9421 147.385 74.8955C148.538 76.8169 149.114 79.0746 149.114 81.6686L129.467 85.5114C130.076 86.9845 131.053 88.1053 132.398 88.8739C133.743 89.6425 135.36 90.0268 137.249 90.0268ZM136.144 73.6466C133.935 73.6466 132.141 74.3671 130.764 75.8082C129.419 77.2493 128.747 79.1867 128.747 81.6205V81.6686L143.254 78.8825C142.837 77.3133 141.989 76.0484 140.708 75.0877C139.459 74.1269 137.938 73.6466 136.144 73.6466ZM162.809 95.1185C160.727 95.1185 158.694 94.8463 156.708 94.3019C154.723 93.7575 153.137 93.069 151.953 92.2364L154.258 87.673C155.411 88.4416 156.788 89.066 158.389 89.5464C160.023 89.9947 161.624 90.2189 163.193 90.2189C166.78 90.2189 168.573 89.2742 168.573 87.3848C168.573 86.4881 168.109 85.8637 167.18 85.5114C166.283 85.1591 164.826 84.8229 162.809 84.5027C160.695 84.1824 158.966 83.8141 157.621 83.3978C156.308 82.9815 155.155 82.261 154.162 81.2362C153.202 80.1794 152.721 78.7224 152.721 76.865C152.721 74.4312 153.73 72.4937 155.747 71.0527C157.797 69.5796 160.551 68.843 164.01 68.843C165.771 68.843 167.532 69.0512 169.293 69.4675C171.055 69.8518 172.496 70.3802 173.617 71.0527L171.311 75.6161C169.133 74.3351 166.684 73.6946 163.962 73.6946C162.2 73.6946 160.855 73.9668 159.927 74.5112C159.03 75.0236 158.582 75.7121 158.582 76.5768C158.582 77.5375 159.062 78.226 160.023 78.6423C161.015 79.0266 162.536 79.3949 164.586 79.7471C166.636 80.0674 168.317 80.4356 169.63 80.8519C170.943 81.2683 172.064 81.9728 172.992 82.9655C173.953 83.9583 174.433 85.3673 174.433 87.1927C174.433 89.5944 173.393 91.5159 171.311 92.9569C169.229 94.398 166.395 95.1185 162.809 95.1185ZM223.334 61.1573V94.7823H217.09V80.3716H199.701V94.7823H193.456V61.1573H199.701V75.0396H217.09V61.1573H223.334ZM256.602 69.1312V94.7823H250.886V91.5159C249.925 92.6687 248.725 93.5654 247.284 94.2059C245.842 94.8143 244.289 95.1185 242.624 95.1185C239.198 95.1185 236.491 94.1738 234.506 92.2844C232.553 90.363 231.576 87.5289 231.576 83.7821V69.1312H237.58V82.9655C237.58 85.2712 238.093 87.0005 239.117 88.1534C240.174 89.2742 241.663 89.8346 243.585 89.8346C245.73 89.8346 247.428 89.1781 248.677 87.8652C249.957 86.5202 250.598 84.5987 250.598 82.1009V69.1312H256.602ZM296.84 68.843C300.075 68.843 302.636 69.7877 304.526 71.6771C306.415 73.5345 307.36 76.3366 307.36 80.0834V94.7823H301.356V80.8519C301.356 78.6103 300.859 76.929 299.866 75.8082C298.874 74.6553 297.449 74.0789 295.591 74.0789C293.574 74.0789 291.957 74.7514 290.74 76.0964C289.523 77.4094 288.914 79.2988 288.914 81.7646V94.7823H282.91V80.8519C282.91 78.6103 282.413 76.929 281.421 75.8082C280.428 74.6553 279.003 74.0789 277.146 74.0789C275.096 74.0789 273.463 74.7354 272.246 76.0484C271.061 77.3614 270.469 79.2668 270.469 81.7646V94.7823H264.464V69.1312H270.18V72.3977C271.141 71.2448 272.342 70.3642 273.783 69.7557C275.224 69.1473 276.825 68.843 278.587 68.843C280.508 68.843 282.205 69.2113 283.678 69.9478C285.184 70.6524 286.368 71.7092 287.233 73.1182C288.29 71.7732 289.651 70.7324 291.316 69.9959C292.981 69.2273 294.823 68.843 296.84 68.843ZM340.342 69.1312V94.7823H334.626V91.4678C333.633 92.6847 332.4 93.5974 330.927 94.2059C329.486 94.8143 327.885 95.1185 326.124 95.1185C323.626 95.1185 321.384 94.5741 319.399 93.4853C317.445 92.3965 315.908 90.8594 314.787 88.8739C313.698 86.8884 313.154 84.5827 313.154 81.9568C313.154 79.3308 313.698 77.0411 314.787 75.0877C315.908 73.1022 317.445 71.565 319.399 70.4762C321.384 69.3874 323.626 68.843 326.124 68.843C327.789 68.843 329.31 69.1312 330.687 69.7077C332.096 70.2841 333.313 71.1327 334.338 72.2536V69.1312H340.342ZM326.796 89.9787C329.006 89.9787 330.831 89.2422 332.272 87.7691C333.713 86.296 334.434 84.3585 334.434 81.9568C334.434 79.555 333.713 77.6175 332.272 76.1444C330.831 74.6714 329.006 73.9348 326.796 73.9348C324.586 73.9348 322.761 74.6714 321.32 76.1444C319.911 77.6175 319.206 79.555 319.206 81.9568C319.206 84.3585 319.911 86.296 321.32 87.7691C322.761 89.2422 324.586 89.9787 326.796 89.9787ZM348.198 69.1312H354.203V94.7823H348.198V69.1312ZM351.224 64.9041C350.136 64.9041 349.223 64.5679 348.486 63.8954C347.75 63.1908 347.382 62.3262 347.382 61.3014C347.382 60.2767 347.75 59.428 348.486 58.7555C349.223 58.051 350.136 57.6988 351.224 57.6988C352.313 57.6988 353.226 58.035 353.962 58.7075C354.699 59.348 355.067 60.1646 355.067 61.1573C355.067 62.2141 354.699 63.1108 353.962 63.8473C353.258 64.5518 352.345 64.9041 351.224 64.9041ZM376.638 68.843C379.873 68.843 382.467 69.7877 384.42 71.6771C386.374 73.5665 387.35 76.3686 387.35 80.0834V94.7823H381.346V80.8519C381.346 78.6103 380.817 76.929 379.761 75.8082C378.704 74.6553 377.199 74.0789 375.245 74.0789C373.036 74.0789 371.29 74.7514 370.009 76.0964C368.728 77.4094 368.088 79.3148 368.088 81.8127V94.7823H362.083V69.1312H367.8V72.4457C368.792 71.2608 370.041 70.3642 371.547 69.7557C373.052 69.1473 374.749 68.843 376.638 68.843ZM407.403 90.0268C410.189 90.0268 412.511 89.0981 414.368 87.2407L417.538 90.9394C416.418 92.3165 414.977 93.3572 413.215 94.0618C411.454 94.7663 409.468 95.1185 407.259 95.1185C404.441 95.1185 401.959 94.5581 399.813 93.4373C397.668 92.3165 396.002 90.7633 394.818 88.7778C393.665 86.7603 393.088 84.4866 393.088 81.9568C393.088 79.4589 393.649 77.2172 394.77 75.2318C395.922 73.2143 397.492 71.6451 399.477 70.5243C401.495 69.4034 403.768 68.843 406.298 68.843C408.7 68.843 410.877 69.3714 412.831 70.4282C414.816 71.453 416.386 72.9421 417.538 74.8955C418.691 76.8169 419.268 79.0746 419.268 81.6686L399.621 85.5114C400.23 86.9845 401.206 88.1053 402.551 88.8739C403.896 89.6425 405.513 90.0268 407.403 90.0268ZM406.298 73.6466C404.088 73.6466 402.295 74.3671 400.918 75.8082C399.573 77.2493 398.901 79.1867 398.901 81.6205V81.6686L413.407 78.8825C412.991 77.3133 412.142 76.0484 410.861 75.0877C409.613 74.1269 408.091 73.6466 406.298 73.6466ZM432.962 95.1185C430.881 95.1185 428.847 94.8463 426.862 94.3019C424.876 93.7575 423.291 93.069 422.106 92.2364L424.412 87.673C425.565 88.4416 426.942 89.066 428.543 89.5464C430.176 89.9947 431.777 90.2189 433.347 90.2189C436.933 90.2189 438.727 89.2742 438.727 87.3848C438.727 86.4881 438.262 85.8637 437.334 85.5114C436.437 85.1591 434.98 84.8229 432.962 84.5027C430.849 84.1824 429.12 83.8141 427.775 83.3978C426.462 82.9815 425.309 82.261 424.316 81.2362C423.355 80.1794 422.875 78.7224 422.875 76.865C422.875 74.4312 423.884 72.4937 425.901 71.0527C427.951 69.5796 430.705 68.843 434.163 68.843C435.925 68.843 437.686 69.0512 439.447 69.4675C441.208 69.8518 442.65 70.3802 443.77 71.0527L441.465 75.6161C439.287 74.3351 436.837 73.6946 434.115 73.6946C432.354 73.6946 431.009 73.9668 430.08 74.5112C429.184 75.0236 428.735 75.7121 428.735 76.5768C428.735 77.5375 429.216 78.226 430.176 78.6423C431.169 79.0266 432.69 79.3949 434.74 79.7471C436.789 80.0674 438.47 80.4356 439.783 80.8519C441.096 81.2683 442.217 81.9728 443.146 82.9655C444.107 83.9583 444.587 85.3673 444.587 87.1927C444.587 89.5944 443.546 91.5159 441.465 92.9569C439.383 94.398 436.549 95.1185 432.962 95.1185Z" fill="black" fill-opacity="0.2"/>
<defs>
<linearGradient id="paint0_linear_4_58" x1="26.8978" y1="-182.202" x2="651.658" y2="-34.3607" gradientUnits="userSpaceOnUse">
<stop stop-color="#2C8DB0"/>
<stop offset="1" stop-color="#1A23CD"/>
</linearGradient>
</defs>
</svg>
